<?xml version="1.0" standalone="no"?>
<!DOCTYPE svg PUBLIC "-//W3C//DTD SVG 20010904//EN"
 "http://www.w3.org/TR/2001/REC-SVG-20010904/DTD/svg10.dtd">
<svg version="1.0" xmlns="http://www.w3.org/2000/svg"
 width="512.000000pt" height="512.000000pt" viewBox="0 0 512.000000 512.000000"
 preserveAspectRatio="xMidYMid meet">
<metadata>
Created by potrace 1.11, written by Peter Selinger 2001-2013
</metadata>
<g transform="translate(0.000000,512.000000) scale(0.100000,-0.100000)"
fill="#000000" stroke="none">
<path d="M2998 5065 c-18 -25 -56 -91 -86 -148 -30 -56 -65 -123 -79 -149 -50
-96 -133 -141 -263 -144 -152 -3 -222 39 -306 185 -31 53 -59 103 -64 111 -5
8 -23 40 -41 70 -60 106 -103 130 -173 99 -37 -17 -40 -31 -61 -361 -6 -87
-30 -155 -68 -197 -35 -38 -118 -88 -177 -105 -106 -31 -179 -15 -291 66 -284
206 -280 203 -339 173 -59 -30 -59 -57 -4 -211 98 -272 96 -267 91 -320 -7
-71 -43 -140 -104 -202 -80 -81 -184 -115 -276 -92 -30 8 -161 36 -217 46 -14
3 -41 9 -60 14 -78 21 -118 11 -153 -40 -34 -50 -23 -68 142 -240 128 -132
141 -148 156 -183 41 -100 13 -250 -63 -342 -45 -55 -98 -82 -200 -105 -357
-78 -349 -75 -359 -149 -8 -57 18 -76 204 -151 87 -34 177 -74 200 -87 109
-61 161 -239 114 -387 -20 -62 -78 -121 -202 -206 -144 -98 -209 -157 -209
-187 0 -34 21 -83 40 -93 12 -6 104 -8 235 -6 201 4 220 3 266 -16 100 -42
191 -179 195 -296 3 -83 -6 -107 -120 -301 -111 -191 -116 -211 -60 -261 29
-25 42 -30 63 -25 14 3 107 45 206 93 171 83 183 87 245 86 159 -2 318 -149
321 -296 1 -52 -9 -173 -17 -213 -3 -11 -7 -63 -11 -115 -5 -91 -4 -97 18
-123 15 -17 38 -30 60 -33 34 -6 41 -2 85 43 27 27 85 93 129 147 128 158 174
188 280 188 114 -1 185 -25 254 -87 50 -45 66 -81 131 -285 53 -168 74 -205
119 -215 76 -16 96 12 151 205 66 234 69 242 120 291 59 58 153 93 250 92 113
0 171 -39 325 -217 106 -122 144 -156 177 -156 39 0 85 25 93 50 7 23 -3 147
-21 244 -26 146 -24 232 6 291 28 54 89 116 139 142 20 10 38 21 41 24 7 9 95
29 125 29 34 0 139 -38 250 -90 120 -56 181 -80 206 -80 33 0 76 27 88 57 15
38 5 62 -103 233 -47 74 -93 151 -101 170 -59 132 27 337 170 405 53 25 61 26
275 28 l220 2 25 26 c14 14 28 41 31 60 8 46 -6 59 -205 194 -194 131 -217
162 -225 294 -4 65 10 145 34 190 42 82 89 113 362 231 109 47 128 63 135 117
9 66 -36 95 -179 117 -21 3 -55 9 -75 12 -89 13 -190 36 -218 49 -116 53 -200
260 -157 388 18 54 48 95 163 219 137 148 153 171 144 214 -3 20 -17 46 -30
58 -30 28 -68 24 -273 -28 -79 -20 -147 -34 -152 -31 -5 3 -11 1 -15 -5 -14
-23 -123 2 -191 45 -133 85 -180 235 -125 400 13 39 26 75 30 80 3 6 6 15 6
20 0 6 13 47 27 92 35 104 38 132 22 164 -15 30 -67 59 -94 52 -16 -4 -56 -34
-268 -196 -111 -85 -166 -101 -270 -77 -98 23 -197 91 -232 159 -21 41 -36
118 -45 231 -20 241 -26 263 -80 286 -56 23 -73 18 -107 -31z m-366 -826 c81
-43 112 -132 80 -230 -40 -118 -202 -142 -279 -41 -38 50 -44 141 -15 199 41
79 139 112 214 72z m-739 -225 c89 -46 118 -164 59 -243 -91 -122 -291 -56
-292 97 0 119 128 200 233 146z m1486 -5 c48 -29 60 -43 75 -87 31 -88 -11
-176 -101 -207 -105 -36 -213 43 -213 157 0 54 44 122 93 143 47 21 107 18
146 -6z m-643 -449 c82 -17 93 -20 142 -36 194 -67 394 -220 507 -389 53 -80
109 -206 135 -305 29 -108 36 -309 15 -420 -20 -101 -64 -231 -84 -250 -4 -3
-7 -12 -9 -20 -8 -34 -97 -164 -162 -233 -289 -309 -751 -398 -1136 -218 -299
140 -516 430 -562 750 -15 102 -4 318 18 377 5 13 7 24 5 24 -6 0 34 107 65
175 58 128 210 307 320 379 25 16 56 37 70 46 84 55 266 116 379 126 36 4 67
8 69 9 7 6 184 -6 228 -15z m-1412 -77 c4 -5 11 -8 14 -9 41 -4 93 -67 103
-124 5 -28 -13 -94 -33 -122 -52 -74 -170 -83 -242 -20 -67 60 -64 174 7 240
36 34 130 55 151 35z m2590 -13 c104 -51 122 -186 35 -265 -22 -19 -47 -36
-57 -36 -9 -1 -28 -3 -42 -4 -35 -4 -99 21 -123 48 -27 31 -47 80 -47 119 1
76 83 157 159 158 19 0 53 -9 75 -20z m-2757 -738 c73 -40 106 -138 71 -212
-15 -32 -77 -90 -97 -91 -9 -1 -29 -3 -46 -5 -40 -4 -107 27 -133 63 -30 42
-41 101 -28 141 17 48 60 97 98 110 36 12 107 9 135 -6z m2932 8 c68 -18 125
-104 114 -171 -18 -115 -128 -177 -228 -129 -55 27 -86 68 -92 125 -7 60 12
109 55 143 54 42 88 49 151 32z m-2728 -756 c56 -33 74 -67 74 -139 0 -74 -19
-107 -80 -142 -99 -56 -229 15 -236 128 -9 132 129 219 242 153z m2540 12 c86
-36 119 -105 96 -202 -9 -35 -59 -88 -97 -102 -66 -25 -162 10 -196 72 -74
132 60 289 197 232z m-1985 -561 c77 -59 89 -147 32 -231 -26 -38 -55 -54
-114 -61 -138 -17 -229 160 -136 265 58 65 153 76 218 27z m1461 11 c39 -19
63 -48 78 -93 12 -36 12 -45 0 -103 -8 -36 -58 -86 -101 -100 -76 -26 -171 16
-201 89 -59 141 89 278 224 207z m-737 -171 c36 -18 57 -45 73 -90 40 -112
-25 -226 -134 -241 -35 -4 -53 -1 -88 18 -57 31 -80 63 -90 124 -15 102 33
180 129 207 23 6 82 -4 110 -18z"/>
</g>
</svg>
